<svg width="24" height="24" viewBox="0 0 24 24" fill="none" xmlns="http://www.w3.org/2000/svg">
<g clip-path="url(#clip0_131_396)">
<path fill-rule="evenodd" clip-rule="evenodd" d="M11.9995 0.929032C9.81002 0.929133 7.66975 1.57843 5.84928 2.79483C4.02866 4.01132 2.60967 5.74037 1.77174 7.76332C0.933801 9.78628 0.714557 12.0123 1.14173 14.1598C1.56891 16.3074 2.62332 18.2801 4.17162 19.8284C5.71992 21.3767 7.69258 22.4311 9.84014 22.8582C11.9877 23.2854 14.2137 23.0662 16.2367 22.2282C18.2596 21.3903 19.9887 19.9713 21.2052 18.1507C22.4216 16.3301 23.0709 14.1896 23.0709 12C23.0675 9.06487 21.8999 6.25096 19.8245 4.17549C17.7489 2.09991 14.9348 0.93238 11.9995 0.929032ZM12 0C9.6266 0 7.30652 0.703788 5.33313 2.02236C3.35974 3.34094 1.82167 5.21508 0.913422 7.4078C0.00517055 9.60051 -0.232472 12.0133 0.230551 14.3411C0.693574 16.6689 1.83647 18.807 3.5147 20.4853C5.19293 22.1635 7.33112 23.3064 9.65889 23.7694C11.9867 24.2324 14.3995 23.9948 16.5922 23.0866C18.7849 22.1783 20.659 20.6402 21.9776 18.6668C23.2962 16.6935 24 14.3734 24 12C23.9965 8.81847 22.7311 5.76825 20.4814 3.51857C18.2317 1.26888 15.1815 0.00348369 12 0Z" fill="white"/>
<path d="M14.8026 14.6059L12.3848 17.0183V5.82543C12.3848 5.69813 12.3342 5.57604 12.2442 5.48602C12.1542 5.396 12.0321 5.34543 11.9048 5.34543C11.7775 5.34543 11.6554 5.396 11.5654 5.48602C11.4753 5.57604 11.4248 5.69813 11.4248 5.82543V17.0187L9.00698 14.6063C8.9172 14.5163 8.79534 14.4657 8.66823 14.4656C8.54112 14.4654 8.41915 14.5158 8.32917 14.6056C8.23918 14.6953 8.18855 14.8172 8.1884 14.9443C8.18826 15.0714 8.23861 15.1934 8.32839 15.2834L11.5653 18.5133C11.5877 18.5356 11.6122 18.5557 11.6385 18.5733C11.651 18.5807 11.6639 18.5874 11.6772 18.5934C11.6918 18.6022 11.707 18.6102 11.7225 18.6174C11.7385 18.6234 11.7549 18.6285 11.7716 18.6325C11.7852 18.6364 11.7979 18.6418 11.8103 18.6445C11.8724 18.6574 11.9364 18.6574 11.9985 18.6445C12.0124 18.6418 12.0252 18.6364 12.0372 18.6325C12.0538 18.6285 12.0703 18.6234 12.0863 18.6174C12.1018 18.6102 12.1169 18.6022 12.1316 18.5934C12.1449 18.5874 12.1578 18.5807 12.1703 18.5733C12.1966 18.5557 12.2211 18.5356 12.2435 18.5133L15.4804 15.2834C15.5702 15.1934 15.6205 15.0714 15.6204 14.9443C15.6202 14.8172 15.5696 14.6953 15.4796 14.6056C15.3896 14.5158 15.2677 14.4654 15.1406 14.4656C15.0134 14.4657 14.8916 14.5163 14.8018 14.6063L14.8026 14.6059Z" fill="white"/>
</g>
<defs>
<clipPath id="clip0_131_396">
<rect width="24" height="24" fill="white"/>
</clipPath>
</defs>
</svg>
