<svg id="Icon_calendar" xmlns="http://www.w3.org/2000/svg" width="35" height="37" viewBox="0 0 35 37">
  <g id="Path_157" data-name="Path 157" transform="translate(0 4)" fill="none">
    <path d="M4.712,0H30.288A4.583,4.583,0,0,1,35,4.442V28.558A4.583,4.583,0,0,1,30.288,33H4.712A4.583,4.583,0,0,1,0,28.558V4.442A4.583,4.583,0,0,1,4.712,0Z" stroke="none"/>
    <path d="M 4.711540222167969 2 C 3.216390609741211 2 2 3.095619201660156 2 4.442310333251953 L 2 28.55768966674805 C 2 29.90438079833984 3.216390609741211 31 4.711540222167969 31 L 30.28845977783203 31 C 31.78360939025879 31 33 29.90438079833984 33 28.55768966674805 L 33 4.442310333251953 C 33 3.095619201660156 31.78360939025879 2 30.28845977783203 2 L 4.711540222167969 2 M 4.711540222167969 0 L 30.28845977783203 0 C 32.89057159423828 0 35 1.988889694213867 35 4.442310333251953 L 35 28.55768966674805 C 35 31.01111030578613 32.89057159423828 33 30.28845977783203 33 L 4.711540222167969 33 C 2.109428405761719 33 0 31.01111030578613 0 28.55768966674805 L 0 4.442310333251953 C 0 1.988889694213867 2.109428405761719 0 4.711540222167969 0 Z" stroke="none" fill="#99ccff"/>
  </g>
  <rect id="Rectangle_11" data-name="Rectangle 11" width="3" height="15" rx="1.5" transform="translate(10)" fill="#99ccff"/>
  <rect id="Rectangle_17" data-name="Rectangle 17" width="3" height="15" rx="1.5" transform="translate(22)" fill="#99ccff"/>
</svg>
